<?xml version="1.0" encoding="utf-8"?>
<!-- Generator: Adobe Illustrator 16.0.0, SVG Export Plug-In . SVG Version: 6.00 Build 0)  -->
<!DOCTYPE svg PUBLIC "-//W3C//DTD SVG 1.1//EN" "http://www.w3.org/Graphics/SVG/1.1/DTD/svg11.dtd">
<svg version="1.1" id="Calque_1" xmlns="http://www.w3.org/2000/svg" xmlns:xlink="http://www.w3.org/1999/xlink" x="0px" y="0px"
	 width="841.891px" height="595.281px" viewBox="0 0 841.891 595.281" enable-background="new 0 0 841.891 595.281"
	 xml:space="preserve">
<path fill="#FFFFFF" d="M503.043,215.546c69.465,69.538,68.512,181.024,0.418,249.495c-0.127,0.14-0.278,0.291-0.418,0.431
	l-78.131,78.13c-68.911,68.911-181.024,68.901-249.925,0c-68.91-68.898-68.91-181.025,0-249.925l43.142-43.142
	c11.44-11.44,31.143-3.837,31.733,12.331c0.754,20.604,4.448,41.307,11.267,61.297c2.309,6.769,0.659,14.257-4.398,19.314
	l-15.216,15.216c-32.585,32.584-33.606,85.641-1.343,118.544c32.582,33.228,86.137,33.425,118.969,0.593l78.131-78.118
	c32.776-32.777,32.639-85.755,0-118.394c-4.303-4.295-8.638-7.632-12.023-9.963c-4.856-3.336-7.852-8.77-8.077-14.657
	c-0.46-12.285,3.893-24.945,13.602-34.653l24.479-24.48c6.419-6.419,16.488-7.207,23.932-2.013
	C487.707,201.504,495.691,208.195,503.043,215.546L503.043,215.546z M666.902,51.679c-68.9-68.901-181.015-68.911-249.926,0
	l-78.13,78.13c-0.14,0.14-0.291,0.291-0.419,0.431c-68.092,68.471-69.047,179.957,0.419,249.494
	c7.351,7.352,15.335,14.042,23.858,19.993c7.443,5.195,17.515,4.405,23.933-2.013l24.479-24.479
	c9.708-9.708,14.062-22.368,13.601-34.654c-0.226-5.887-3.22-11.321-8.077-14.656c-3.386-2.331-7.72-5.668-12.022-9.963
	c-32.64-32.64-32.777-85.617,0-118.394l78.13-78.119c32.833-32.832,86.386-32.635,118.97,0.594
	c32.264,32.902,31.242,85.959-1.344,118.544l-15.215,15.216c-5.058,5.058-6.708,12.545-4.398,19.314
	c6.817,19.99,10.513,40.691,11.266,61.296c0.592,16.168,20.293,23.772,31.733,12.331l43.142-43.142
	C735.812,232.705,735.812,120.578,666.902,51.679z"/>
</svg>
