<?xml version="1.0" encoding="utf-8"?>
<!-- Generator: Adobe Illustrator 16.0.0, SVG Export Plug-In . SVG Version: 6.00 Build 0)  -->
<!DOCTYPE svg PUBLIC "-//W3C//DTD SVG 1.1//EN" "http://www.w3.org/Graphics/SVG/1.1/DTD/svg11.dtd">
<svg version="1.1" id="Calque_1" xmlns="http://www.w3.org/2000/svg" xmlns:xlink="http://www.w3.org/1999/xlink" x="0px" y="0px"
	 width="841.891px" height="595.281px" viewBox="0 0 841.891 595.281" enable-background="new 0 0 841.891 595.281"
	 xml:space="preserve">
<path fill="#FFFFFF" d="M710.447,514.709L594.53,398.792c-5.232-5.232-12.324-8.139-19.766-8.139h-18.951
	c32.089-41.042,51.157-92.664,51.157-148.82C606.97,108.243,498.726,0,365.137,0c-133.59,0-241.833,108.243-241.833,241.833
	c0,133.589,108.243,241.833,241.833,241.833c56.156,0,107.778-19.068,148.82-51.157v18.951c0,7.441,2.906,14.533,8.139,19.766
	l115.917,115.917c10.929,10.929,28.601,10.929,39.414,0l32.902-32.903C721.26,543.309,721.26,525.637,710.447,514.709z
	 M365.137,390.653c-82.2,0-148.82-66.504-148.82-148.82c0-82.2,66.504-148.82,148.82-148.82c82.2,0,148.82,66.504,148.82,148.82
	C513.958,324.033,447.454,390.653,365.137,390.653z"/>
</svg>
